<?xml version="1.0" standalone="no"?>
<!DOCTYPE svg PUBLIC "-//W3C//DTD SVG 20010904//EN"
 "http://www.w3.org/TR/2001/REC-SVG-20010904/DTD/svg10.dtd">
<svg version="1.0" xmlns="http://www.w3.org/2000/svg"
 width="96.000000pt" height="96.000000pt" viewBox="0 0 96.000000 96.000000"
 preserveAspectRatio="xMidYMid meet">
<metadata>
Created by potrace 1.14, written by Peter Selinger 2001-2017
</metadata>
<g transform="translate(0.000000,96.000000) scale(0.100000,-0.100000)"
fill="#000000" stroke="none">
<path d="M444 838 c-6 -7 -30 -53 -54 -103 -24 -49 -45 -92 -46 -94 -4 -5 -90
-20 -154 -27 -30 -3 -65 -12 -77 -20 -40 -26 -28 -53 58 -138 84 -82 89 -91
74 -156 -26 -115 -26 -169 1 -187 20 -12 31 -9 128 41 l106 56 102 -55 c93
-49 106 -53 128 -42 33 17 33 48 2 209 l-9 47 79 78 c43 43 81 88 85 101 6 24
-17 58 -40 59 -6 0 -28 3 -47 6 -19 3 -61 9 -93 13 -32 3 -63 12 -69 18 -5 6
-31 54 -56 106 -43 87 -50 95 -78 98 -17 2 -35 -3 -40 -10z m96 -116 c25 -50
50 -96 57 -103 8 -8 183 -44 241 -49 13 -1 -11 -30 -83 -102 -69 -68 -84 -89
-80 -108 2 -14 11 -67 19 -118 9 -50 16 -94 16 -97 0 -15 -43 1 -131 47 l-98
53 -99 -53 c-94 -49 -132 -62 -132 -44 0 4 9 56 20 115 13 71 17 115 11 125
-5 10 -44 50 -85 90 -65 62 -88 92 -72 92 2 0 25 4 52 9 27 5 74 12 104 16 30
4 62 11 72 16 9 5 35 48 59 96 50 102 58 115 73 110 6 -2 31 -44 56 -95z"/>
<path d="M430 622 l-35 -67 -75 -12 c-41 -6 -76 -12 -77 -12 -14 -4 7 -36 51
-80 52 -52 53 -54 45 -92 -16 -69 -18 -108 -7 -115 6 -4 41 8 79 27 l69 33 0
193 c0 106 -3 193 -7 193 -5 0 -24 -30 -43 -68z"/>
</g>
</svg>
